# xmcd
#
# Track frame offsets:
#	150
#	13170
#	24165
#	38276
#	51085
#	68915
#	81602
#	97555
#	108536
#	124735
#	138470
#	150935
#	163832
#	177257
#	192246
#	204862
#	219665
#	231887
#	244982
#	259365
#	274319
#	288560
#
# Disc length: 4053 seconds
#
# Revision: 1
# Processed by: cddbd v1.5.2PL0 Copyright (c) Steve Scherf et al.
# Submitted via: EasyCDDAExtractor 16.0.8.2
#
DISCID=370fd316
DTITLE=Μοσχολιού Βίκυ - Αξέχαστες επιτυχίες-Μοσχολιού Β. 1
DYEAR=1982
DGENRE=Λαϊκή
TTITLE0=Τα τραίνα που φύγαν[Σ.Ξαρχάκου-Β.Γκούφα-Β.Ανδρεό/λου]
TTITLE1=Σ' έβλεπα στα μάτια [Δ. Μούτση-Ν. Γκάτσου]
TTITLE2=Ξημερώματα [Γ. Ζαμπέτα-Δ. Χριστοδούλου]
TTITLE3=Πήρα απ' τη νιότη χρώματα [Α. Καλδάρα-Ε. Παπαγιαν/λου]
TTITLE4=Χάθηκε το φεγγάρι [Σ. Ξαρχάκου-Β. Γκούφα]
TTITLE5=Μην τα φιλάς τα μάτια μου [Α. Καλδάρα]
TTITLE6=Πέρα από τη θάλασσα [Γ. Μαρκόπουλου-Ερ. Θαλασσινού]
TTITLE7=Ούτε αχ δεν θα πω [Ά. Πάνου-Αν. Μπακιρτζή]
TTITLE8=Με τα θλιμμένα μάτια μου [Ε. Πιτσιλαδή-Γ. Κιούρκα]
TTITLE9=Βάλε κι άλλο πιάτο [Σ. Ξαρχάκου-Λ. Παπαδόπουλου]
TTITLE10=Ξενύχτησα στην πόρτα σου [Γ. Χατζηνάσιου-Γ. Κανελλό/λου]
TTITLE11=Ένα αστέρι πέφτει, πέφτει [Α. Καλδάρα]
TTITLE12=Δεν ξέρω πόσο σ' αγαπώ [Α. Καλδάρα-Χ. Αργυρόπουλου]
TTITLE13=Δεν είναι όνειρο η ζωή [Β. Τσιτσάνη]
TTITLE14=Δεν κλαίω για τώρα [Ά. Πάνου-Αν. Μπακιρτζή]
TTITLE15=Λευτέρης [Σ. Ξαρχάκου-Ν. Γκάτσου]
TTITLE16=Τα δειλινά [Γ. Ζαμπέτα-Χ. Βασιλειάδη]
TTITLE17=Πάει, πάει [Γ. Ζαμπέτα-Χ. Βασιλειάδη]
TTITLE18=Θα βρεθεί και για μάς [Β. Πιτσιλαδή-Γ. Κιούρκα]
TTITLE19=Τα δάκρυα [Γ. Ζαμπέτα-Γ. Παπανικολόπουλου]
TTITLE20=Είναι ο άνθρωπος που αγαπώ [Γ. Καραμπεσίνη]
TTITLE21=Είπα να σβύσω τα παλιά [Α. Καλδάρα]
EXTD=
EXTT0=
EXTT1=
EXTT2=
EXTT3=
EXTT4=
EXTT5=
EXTT6=
EXTT7=
EXTT8=
EXTT9=
EXTT10=
EXTT11=
EXTT12=
EXTT13=
EXTT14=
EXTT15=
EXTT16=
EXTT17=
EXTT18=
EXTT19=
EXTT20=
EXTT21=
PLAYORDER=
